<?xml version="1.0" encoding="UTF-8" standalone="no"?>
<!DOCTYPE svg PUBLIC "-//W3C//DTD SVG 1.1//EN"
 "http://www.w3.org/Graphics/SVG/1.1/DTD/svg11.dtd">
<!-- Generated by graphviz version 7.1.0 (20230121.1956)
 -->
<!-- Pages: 1 -->
<svg width="206pt" height="1484pt"
 viewBox="0.00 0.00 206.00 1484.00" xmlns="http://www.w3.org/2000/svg" xmlns:xlink="http://www.w3.org/1999/xlink">
<g id="graph0" class="graph" transform="scale(1 1) rotate(0) translate(4 1480)">
<polygon fill="white" stroke="none" points="-4,4 -4,-1480 202,-1480 202,4 -4,4"/>
<!-- 1 -->
<g id="node1" class="node">
<title>1</title>
<ellipse fill="#c1b2ff" stroke="#c1b2ff" cx="63" cy="-18" rx="27" ry="18"/>
<text text-anchor="middle" x="63" y="-14.3" font-family="Times New Roman,serif" font-size="14.00">1</text>
</g>
<!-- 2 -->
<g id="node2" class="node">
<title>2</title>
<ellipse fill="#ffe5ed" stroke="#ffe5ed" cx="63" cy="-90" rx="27" ry="18"/>
<text text-anchor="middle" x="63" y="-86.3" font-family="Times New Roman,serif" font-size="14.00">2</text>
</g>
<!-- 2&#45;&gt;1 -->
<g id="edge1" class="edge">
<title>2&#45;&gt;1</title>
<path fill="none" stroke="black" d="M63,-71.7C63,-64.41 63,-55.73 63,-47.54"/>
<polygon fill="black" stroke="black" points="66.5,-47.62 63,-37.62 59.5,-47.62 66.5,-47.62"/>
</g>
<!-- 3 -->
<g id="node3" class="node">
<title>3</title>
<ellipse fill="#ffe5ed" stroke="#ffe5ed" cx="27" cy="-522" rx="27" ry="18"/>
<text text-anchor="middle" x="27" y="-518.3" font-family="Times New Roman,serif" font-size="14.00">3</text>
</g>
<!-- 10 -->
<g id="node4" class="node">
<title>10</title>
<ellipse fill="#ffe5ed" stroke="#ffe5ed" cx="63" cy="-450" rx="27" ry="18"/>
<text text-anchor="middle" x="63" y="-446.3" font-family="Times New Roman,serif" font-size="14.00">10</text>
</g>
<!-- 3&#45;&gt;10 -->
<g id="edge2" class="edge">
<title>3&#45;&gt;10</title>
<path fill="none" stroke="black" d="M35.35,-504.76C39.58,-496.55 44.81,-486.37 49.58,-477.09"/>
<polygon fill="black" stroke="black" points="52.54,-478.99 54,-468.49 46.32,-475.79 52.54,-478.99"/>
</g>
<!-- 5 -->
<g id="node5" class="node">
<title>5</title>
<ellipse fill="#ffe5ed" stroke="#ffe5ed" cx="63" cy="-378" rx="27" ry="18"/>
<text text-anchor="middle" x="63" y="-374.3" font-family="Times New Roman,serif" font-size="14.00">5</text>
</g>
<!-- 10&#45;&gt;5 -->
<g id="edge3" class="edge">
<title>10&#45;&gt;5</title>
<path fill="none" stroke="black" d="M63,-431.7C63,-424.41 63,-415.73 63,-407.54"/>
<polygon fill="black" stroke="black" points="66.5,-407.62 63,-397.62 59.5,-407.62 66.5,-407.62"/>
</g>
<!-- 16 -->
<g id="node6" class="node">
<title>16</title>
<ellipse fill="#ffe5ed" stroke="#ffe5ed" cx="63" cy="-306" rx="27" ry="18"/>
<text text-anchor="middle" x="63" y="-302.3" font-family="Times New Roman,serif" font-size="14.00">16</text>
</g>
<!-- 5&#45;&gt;16 -->
<g id="edge4" class="edge">
<title>5&#45;&gt;16</title>
<path fill="none" stroke="black" d="M63,-359.7C63,-352.41 63,-343.73 63,-335.54"/>
<polygon fill="black" stroke="black" points="66.5,-335.62 63,-325.62 59.5,-335.62 66.5,-335.62"/>
</g>
<!-- 8 -->
<g id="node7" class="node">
<title>8</title>
<ellipse fill="#ffe5ed" stroke="#ffe5ed" cx="63" cy="-234" rx="27" ry="18"/>
<text text-anchor="middle" x="63" y="-230.3" font-family="Times New Roman,serif" font-size="14.00">8</text>
</g>
<!-- 16&#45;&gt;8 -->
<g id="edge5" class="edge">
<title>16&#45;&gt;8</title>
<path fill="none" stroke="black" d="M63,-287.7C63,-280.41 63,-271.73 63,-263.54"/>
<polygon fill="black" stroke="black" points="66.5,-263.62 63,-253.62 59.5,-263.62 66.5,-263.62"/>
</g>
<!-- 4 -->
<g id="node8" class="node">
<title>4</title>
<ellipse fill="#ffe5ed" stroke="#ffe5ed" cx="63" cy="-162" rx="27" ry="18"/>
<text text-anchor="middle" x="63" y="-158.3" font-family="Times New Roman,serif" font-size="14.00">4</text>
</g>
<!-- 8&#45;&gt;4 -->
<g id="edge6" class="edge">
<title>8&#45;&gt;4</title>
<path fill="none" stroke="black" d="M63,-215.7C63,-208.41 63,-199.73 63,-191.54"/>
<polygon fill="black" stroke="black" points="66.5,-191.62 63,-181.62 59.5,-191.62 66.5,-191.62"/>
</g>
<!-- 4&#45;&gt;2 -->
<g id="edge7" class="edge">
<title>4&#45;&gt;2</title>
<path fill="none" stroke="black" d="M63,-143.7C63,-136.41 63,-127.73 63,-119.54"/>
<polygon fill="black" stroke="black" points="66.5,-119.62 63,-109.62 59.5,-119.62 66.5,-119.62"/>
</g>
<!-- 6 -->
<g id="node9" class="node">
<title>6</title>
<ellipse fill="#ffe5ed" stroke="#ffe5ed" cx="27" cy="-594" rx="27" ry="18"/>
<text text-anchor="middle" x="27" y="-590.3" font-family="Times New Roman,serif" font-size="14.00">6</text>
</g>
<!-- 6&#45;&gt;3 -->
<g id="edge8" class="edge">
<title>6&#45;&gt;3</title>
<path fill="none" stroke="black" d="M27,-575.7C27,-568.41 27,-559.73 27,-551.54"/>
<polygon fill="black" stroke="black" points="30.5,-551.62 27,-541.62 23.5,-551.62 30.5,-551.62"/>
</g>
<!-- 7 -->
<g id="node10" class="node">
<title>7</title>
<ellipse fill="#ffe5ed" stroke="#ffe5ed" cx="27" cy="-1170" rx="27" ry="18"/>
<text text-anchor="middle" x="27" y="-1166.3" font-family="Times New Roman,serif" font-size="14.00">7</text>
</g>
<!-- 22 -->
<g id="node11" class="node">
<title>22</title>
<ellipse fill="#ffe5ed" stroke="#ffe5ed" cx="99" cy="-1098" rx="27" ry="18"/>
<text text-anchor="middle" x="99" y="-1094.3" font-family="Times New Roman,serif" font-size="14.00">22</text>
</g>
<!-- 7&#45;&gt;22 -->
<g id="edge9" class="edge">
<title>7&#45;&gt;22</title>
<path fill="none" stroke="black" d="M41.92,-1154.5C51.77,-1144.92 64.86,-1132.19 76.03,-1121.34"/>
<polygon fill="black" stroke="black" points="78.29,-1124.02 83.02,-1114.54 73.41,-1119 78.29,-1124.02"/>
</g>
<!-- 11 -->
<g id="node12" class="node">
<title>11</title>
<ellipse fill="#ffe5ed" stroke="#ffe5ed" cx="99" cy="-1026" rx="27" ry="18"/>
<text text-anchor="middle" x="99" y="-1022.3" font-family="Times New Roman,serif" font-size="14.00">11</text>
</g>
<!-- 22&#45;&gt;11 -->
<g id="edge10" class="edge">
<title>22&#45;&gt;11</title>
<path fill="none" stroke="black" d="M99,-1079.7C99,-1072.41 99,-1063.73 99,-1055.54"/>
<polygon fill="black" stroke="black" points="102.5,-1055.62 99,-1045.62 95.5,-1055.62 102.5,-1055.62"/>
</g>
<!-- 34 -->
<g id="node13" class="node">
<title>34</title>
<ellipse fill="#ffe5ed" stroke="#ffe5ed" cx="99" cy="-954" rx="27" ry="18"/>
<text text-anchor="middle" x="99" y="-950.3" font-family="Times New Roman,serif" font-size="14.00">34</text>
</g>
<!-- 11&#45;&gt;34 -->
<g id="edge11" class="edge">
<title>11&#45;&gt;34</title>
<path fill="none" stroke="black" d="M99,-1007.7C99,-1000.41 99,-991.73 99,-983.54"/>
<polygon fill="black" stroke="black" points="102.5,-983.62 99,-973.62 95.5,-983.62 102.5,-983.62"/>
</g>
<!-- 17 -->
<g id="node14" class="node">
<title>17</title>
<ellipse fill="#ffe5ed" stroke="#ffe5ed" cx="99" cy="-882" rx="27" ry="18"/>
<text text-anchor="middle" x="99" y="-878.3" font-family="Times New Roman,serif" font-size="14.00">17</text>
</g>
<!-- 34&#45;&gt;17 -->
<g id="edge12" class="edge">
<title>34&#45;&gt;17</title>
<path fill="none" stroke="black" d="M99,-935.7C99,-928.41 99,-919.73 99,-911.54"/>
<polygon fill="black" stroke="black" points="102.5,-911.62 99,-901.62 95.5,-911.62 102.5,-911.62"/>
</g>
<!-- 52 -->
<g id="node15" class="node">
<title>52</title>
<ellipse fill="#ffe5ed" stroke="#ffe5ed" cx="99" cy="-810" rx="27" ry="18"/>
<text text-anchor="middle" x="99" y="-806.3" font-family="Times New Roman,serif" font-size="14.00">52</text>
</g>
<!-- 17&#45;&gt;52 -->
<g id="edge13" class="edge">
<title>17&#45;&gt;52</title>
<path fill="none" stroke="black" d="M99,-863.7C99,-856.41 99,-847.73 99,-839.54"/>
<polygon fill="black" stroke="black" points="102.5,-839.62 99,-829.62 95.5,-839.62 102.5,-839.62"/>
</g>
<!-- 26 -->
<g id="node16" class="node">
<title>26</title>
<ellipse fill="#ffe5ed" stroke="#ffe5ed" cx="99" cy="-738" rx="27" ry="18"/>
<text text-anchor="middle" x="99" y="-734.3" font-family="Times New Roman,serif" font-size="14.00">26</text>
</g>
<!-- 52&#45;&gt;26 -->
<g id="edge14" class="edge">
<title>52&#45;&gt;26</title>
<path fill="none" stroke="black" d="M99,-791.7C99,-784.41 99,-775.73 99,-767.54"/>
<polygon fill="black" stroke="black" points="102.5,-767.62 99,-757.62 95.5,-767.62 102.5,-767.62"/>
</g>
<!-- 13 -->
<g id="node17" class="node">
<title>13</title>
<ellipse fill="#ffe5ed" stroke="#ffe5ed" cx="99" cy="-666" rx="27" ry="18"/>
<text text-anchor="middle" x="99" y="-662.3" font-family="Times New Roman,serif" font-size="14.00">13</text>
</g>
<!-- 26&#45;&gt;13 -->
<g id="edge15" class="edge">
<title>26&#45;&gt;13</title>
<path fill="none" stroke="black" d="M99,-719.7C99,-712.41 99,-703.73 99,-695.54"/>
<polygon fill="black" stroke="black" points="102.5,-695.62 99,-685.62 95.5,-695.62 102.5,-695.62"/>
</g>
<!-- 40 -->
<g id="node18" class="node">
<title>40</title>
<ellipse fill="#ffe5ed" stroke="#ffe5ed" cx="99" cy="-594" rx="27" ry="18"/>
<text text-anchor="middle" x="99" y="-590.3" font-family="Times New Roman,serif" font-size="14.00">40</text>
</g>
<!-- 13&#45;&gt;40 -->
<g id="edge16" class="edge">
<title>13&#45;&gt;40</title>
<path fill="none" stroke="black" d="M99,-647.7C99,-640.41 99,-631.73 99,-623.54"/>
<polygon fill="black" stroke="black" points="102.5,-623.62 99,-613.62 95.5,-623.62 102.5,-623.62"/>
</g>
<!-- 20 -->
<g id="node19" class="node">
<title>20</title>
<ellipse fill="#ffe5ed" stroke="#ffe5ed" cx="99" cy="-522" rx="27" ry="18"/>
<text text-anchor="middle" x="99" y="-518.3" font-family="Times New Roman,serif" font-size="14.00">20</text>
</g>
<!-- 40&#45;&gt;20 -->
<g id="edge17" class="edge">
<title>40&#45;&gt;20</title>
<path fill="none" stroke="black" d="M99,-575.7C99,-568.41 99,-559.73 99,-551.54"/>
<polygon fill="black" stroke="black" points="102.5,-551.62 99,-541.62 95.5,-551.62 102.5,-551.62"/>
</g>
<!-- 20&#45;&gt;10 -->
<g id="edge18" class="edge">
<title>20&#45;&gt;10</title>
<path fill="none" stroke="black" d="M90.65,-504.76C86.42,-496.55 81.19,-486.37 76.42,-477.09"/>
<polygon fill="black" stroke="black" points="79.68,-475.79 72,-468.49 73.46,-478.99 79.68,-475.79"/>
</g>
<!-- 9 -->
<g id="node20" class="node">
<title>9</title>
<ellipse fill="#ffe5ed" stroke="#ffe5ed" cx="27" cy="-1386" rx="27" ry="18"/>
<text text-anchor="middle" x="27" y="-1382.3" font-family="Times New Roman,serif" font-size="14.00">9</text>
</g>
<!-- 28 -->
<g id="node21" class="node">
<title>28</title>
<ellipse fill="#ffe5ed" stroke="#ffe5ed" cx="27" cy="-1314" rx="27" ry="18"/>
<text text-anchor="middle" x="27" y="-1310.3" font-family="Times New Roman,serif" font-size="14.00">28</text>
</g>
<!-- 9&#45;&gt;28 -->
<g id="edge19" class="edge">
<title>9&#45;&gt;28</title>
<path fill="none" stroke="black" d="M27,-1367.7C27,-1360.41 27,-1351.73 27,-1343.54"/>
<polygon fill="black" stroke="black" points="30.5,-1343.62 27,-1333.62 23.5,-1343.62 30.5,-1343.62"/>
</g>
<!-- 14 -->
<g id="node22" class="node">
<title>14</title>
<ellipse fill="#ffe5ed" stroke="#ffe5ed" cx="27" cy="-1242" rx="27" ry="18"/>
<text text-anchor="middle" x="27" y="-1238.3" font-family="Times New Roman,serif" font-size="14.00">14</text>
</g>
<!-- 28&#45;&gt;14 -->
<g id="edge20" class="edge">
<title>28&#45;&gt;14</title>
<path fill="none" stroke="black" d="M27,-1295.7C27,-1288.41 27,-1279.73 27,-1271.54"/>
<polygon fill="black" stroke="black" points="30.5,-1271.62 27,-1261.62 23.5,-1271.62 30.5,-1271.62"/>
</g>
<!-- 14&#45;&gt;7 -->
<g id="edge21" class="edge">
<title>14&#45;&gt;7</title>
<path fill="none" stroke="black" d="M27,-1223.7C27,-1216.41 27,-1207.73 27,-1199.54"/>
<polygon fill="black" stroke="black" points="30.5,-1199.62 27,-1189.62 23.5,-1199.62 30.5,-1199.62"/>
</g>
<!-- 12 -->
<g id="node23" class="node">
<title>12</title>
<ellipse fill="#ffe5ed" stroke="#ffe5ed" cx="27" cy="-666" rx="27" ry="18"/>
<text text-anchor="middle" x="27" y="-662.3" font-family="Times New Roman,serif" font-size="14.00">12</text>
</g>
<!-- 12&#45;&gt;6 -->
<g id="edge22" class="edge">
<title>12&#45;&gt;6</title>
<path fill="none" stroke="black" d="M27,-647.7C27,-640.41 27,-631.73 27,-623.54"/>
<polygon fill="black" stroke="black" points="30.5,-623.62 27,-613.62 23.5,-623.62 30.5,-623.62"/>
</g>
<!-- 15 -->
<g id="node24" class="node">
<title>15</title>
<ellipse fill="#ffe5ed" stroke="#ffe5ed" cx="171" cy="-1242" rx="27" ry="18"/>
<text text-anchor="middle" x="171" y="-1238.3" font-family="Times New Roman,serif" font-size="14.00">15</text>
</g>
<!-- 46 -->
<g id="node25" class="node">
<title>46</title>
<ellipse fill="#ffe5ed" stroke="#ffe5ed" cx="171" cy="-1170" rx="27" ry="18"/>
<text text-anchor="middle" x="171" y="-1166.3" font-family="Times New Roman,serif" font-size="14.00">46</text>
</g>
<!-- 15&#45;&gt;46 -->
<g id="edge23" class="edge">
<title>15&#45;&gt;46</title>
<path fill="none" stroke="black" d="M171,-1223.7C171,-1216.41 171,-1207.73 171,-1199.54"/>
<polygon fill="black" stroke="black" points="174.5,-1199.62 171,-1189.62 167.5,-1199.62 174.5,-1199.62"/>
</g>
<!-- 23 -->
<g id="node26" class="node">
<title>23</title>
<ellipse fill="#ffe5ed" stroke="#ffe5ed" cx="171" cy="-1098" rx="27" ry="18"/>
<text text-anchor="middle" x="171" y="-1094.3" font-family="Times New Roman,serif" font-size="14.00">23</text>
</g>
<!-- 46&#45;&gt;23 -->
<g id="edge24" class="edge">
<title>46&#45;&gt;23</title>
<path fill="none" stroke="black" d="M171,-1151.7C171,-1144.41 171,-1135.73 171,-1127.54"/>
<polygon fill="black" stroke="black" points="174.5,-1127.62 171,-1117.62 167.5,-1127.62 174.5,-1127.62"/>
</g>
<!-- 70 -->
<g id="node27" class="node">
<title>70</title>
<ellipse fill="#ffe5ed" stroke="#ffe5ed" cx="171" cy="-1026" rx="27" ry="18"/>
<text text-anchor="middle" x="171" y="-1022.3" font-family="Times New Roman,serif" font-size="14.00">70</text>
</g>
<!-- 23&#45;&gt;70 -->
<g id="edge25" class="edge">
<title>23&#45;&gt;70</title>
<path fill="none" stroke="black" d="M171,-1079.7C171,-1072.41 171,-1063.73 171,-1055.54"/>
<polygon fill="black" stroke="black" points="174.5,-1055.62 171,-1045.62 167.5,-1055.62 174.5,-1055.62"/>
</g>
<!-- 35 -->
<g id="node28" class="node">
<title>35</title>
<ellipse fill="#ffe5ed" stroke="#ffe5ed" cx="171" cy="-954" rx="27" ry="18"/>
<text text-anchor="middle" x="171" y="-950.3" font-family="Times New Roman,serif" font-size="14.00">35</text>
</g>
<!-- 70&#45;&gt;35 -->
<g id="edge26" class="edge">
<title>70&#45;&gt;35</title>
<path fill="none" stroke="black" d="M171,-1007.7C171,-1000.41 171,-991.73 171,-983.54"/>
<polygon fill="black" stroke="black" points="174.5,-983.62 171,-973.62 167.5,-983.62 174.5,-983.62"/>
</g>
<!-- 106 -->
<g id="node29" class="node">
<title>106</title>
<ellipse fill="#ffe5ed" stroke="#ffe5ed" cx="171" cy="-882" rx="27" ry="18"/>
<text text-anchor="middle" x="171" y="-878.3" font-family="Times New Roman,serif" font-size="14.00">106</text>
</g>
<!-- 35&#45;&gt;106 -->
<g id="edge27" class="edge">
<title>35&#45;&gt;106</title>
<path fill="none" stroke="black" d="M171,-935.7C171,-928.41 171,-919.73 171,-911.54"/>
<polygon fill="black" stroke="black" points="174.5,-911.62 171,-901.62 167.5,-911.62 174.5,-911.62"/>
</g>
<!-- 53 -->
<g id="node30" class="node">
<title>53</title>
<ellipse fill="#ffe5ed" stroke="#ffe5ed" cx="171" cy="-810" rx="27" ry="18"/>
<text text-anchor="middle" x="171" y="-806.3" font-family="Times New Roman,serif" font-size="14.00">53</text>
</g>
<!-- 106&#45;&gt;53 -->
<g id="edge28" class="edge">
<title>106&#45;&gt;53</title>
<path fill="none" stroke="black" d="M171,-863.7C171,-856.41 171,-847.73 171,-839.54"/>
<polygon fill="black" stroke="black" points="174.5,-839.62 171,-829.62 167.5,-839.62 174.5,-839.62"/>
</g>
<!-- 160 -->
<g id="node31" class="node">
<title>160</title>
<ellipse fill="#ffe5ed" stroke="#ffe5ed" cx="171" cy="-738" rx="27" ry="18"/>
<text text-anchor="middle" x="171" y="-734.3" font-family="Times New Roman,serif" font-size="14.00">160</text>
</g>
<!-- 53&#45;&gt;160 -->
<g id="edge29" class="edge">
<title>53&#45;&gt;160</title>
<path fill="none" stroke="black" d="M171,-791.7C171,-784.41 171,-775.73 171,-767.54"/>
<polygon fill="black" stroke="black" points="174.5,-767.62 171,-757.62 167.5,-767.62 174.5,-767.62"/>
</g>
<!-- 80 -->
<g id="node32" class="node">
<title>80</title>
<ellipse fill="#ffe5ed" stroke="#ffe5ed" cx="171" cy="-666" rx="27" ry="18"/>
<text text-anchor="middle" x="171" y="-662.3" font-family="Times New Roman,serif" font-size="14.00">80</text>
</g>
<!-- 160&#45;&gt;80 -->
<g id="edge30" class="edge">
<title>160&#45;&gt;80</title>
<path fill="none" stroke="black" d="M171,-719.7C171,-712.41 171,-703.73 171,-695.54"/>
<polygon fill="black" stroke="black" points="174.5,-695.62 171,-685.62 167.5,-695.62 174.5,-695.62"/>
</g>
<!-- 80&#45;&gt;40 -->
<g id="edge31" class="edge">
<title>80&#45;&gt;40</title>
<path fill="none" stroke="black" d="M156.08,-650.5C146.23,-640.92 133.14,-628.19 121.97,-617.34"/>
<polygon fill="black" stroke="black" points="124.59,-615 114.98,-610.54 119.71,-620.02 124.59,-615"/>
</g>
<!-- 18 -->
<g id="node33" class="node">
<title>18</title>
<ellipse fill="#ffe5ed" stroke="#ffe5ed" cx="27" cy="-1458" rx="27" ry="18"/>
<text text-anchor="middle" x="27" y="-1454.3" font-family="Times New Roman,serif" font-size="14.00">18</text>
</g>
<!-- 18&#45;&gt;9 -->
<g id="edge32" class="edge">
<title>18&#45;&gt;9</title>
<path fill="none" stroke="black" d="M27,-1439.7C27,-1432.41 27,-1423.73 27,-1415.54"/>
<polygon fill="black" stroke="black" points="30.5,-1415.62 27,-1405.62 23.5,-1415.62 30.5,-1415.62"/>
</g>
<!-- 19 -->
<g id="node34" class="node">
<title>19</title>
<ellipse fill="#ffe5ed" stroke="#ffe5ed" cx="99" cy="-1458" rx="27" ry="18"/>
<text text-anchor="middle" x="99" y="-1454.3" font-family="Times New Roman,serif" font-size="14.00">19</text>
</g>
<!-- 58 -->
<g id="node35" class="node">
<title>58</title>
<ellipse fill="#ffe5ed" stroke="#ffe5ed" cx="99" cy="-1386" rx="27" ry="18"/>
<text text-anchor="middle" x="99" y="-1382.3" font-family="Times New Roman,serif" font-size="14.00">58</text>
</g>
<!-- 19&#45;&gt;58 -->
<g id="edge33" class="edge">
<title>19&#45;&gt;58</title>
<path fill="none" stroke="black" d="M99,-1439.7C99,-1432.41 99,-1423.73 99,-1415.54"/>
<polygon fill="black" stroke="black" points="102.5,-1415.62 99,-1405.62 95.5,-1415.62 102.5,-1415.62"/>
</g>
<!-- 29 -->
<g id="node36" class="node">
<title>29</title>
<ellipse fill="#ffe5ed" stroke="#ffe5ed" cx="99" cy="-1314" rx="27" ry="18"/>
<text text-anchor="middle" x="99" y="-1310.3" font-family="Times New Roman,serif" font-size="14.00">29</text>
</g>
<!-- 58&#45;&gt;29 -->
<g id="edge34" class="edge">
<title>58&#45;&gt;29</title>
<path fill="none" stroke="black" d="M99,-1367.7C99,-1360.41 99,-1351.73 99,-1343.54"/>
<polygon fill="black" stroke="black" points="102.5,-1343.62 99,-1333.62 95.5,-1343.62 102.5,-1343.62"/>
</g>
<!-- 88 -->
<g id="node37" class="node">
<title>88</title>
<ellipse fill="#ffe5ed" stroke="#ffe5ed" cx="99" cy="-1242" rx="27" ry="18"/>
<text text-anchor="middle" x="99" y="-1238.3" font-family="Times New Roman,serif" font-size="14.00">88</text>
</g>
<!-- 29&#45;&gt;88 -->
<g id="edge35" class="edge">
<title>29&#45;&gt;88</title>
<path fill="none" stroke="black" d="M99,-1295.7C99,-1288.41 99,-1279.73 99,-1271.54"/>
<polygon fill="black" stroke="black" points="102.5,-1271.62 99,-1261.62 95.5,-1271.62 102.5,-1271.62"/>
</g>
<!-- 44 -->
<g id="node38" class="node">
<title>44</title>
<ellipse fill="#ffe5ed" stroke="#ffe5ed" cx="99" cy="-1170" rx="27" ry="18"/>
<text text-anchor="middle" x="99" y="-1166.3" font-family="Times New Roman,serif" font-size="14.00">44</text>
</g>
<!-- 88&#45;&gt;44 -->
<g id="edge36" class="edge">
<title>88&#45;&gt;44</title>
<path fill="none" stroke="black" d="M99,-1223.7C99,-1216.41 99,-1207.73 99,-1199.54"/>
<polygon fill="black" stroke="black" points="102.5,-1199.62 99,-1189.62 95.5,-1199.62 102.5,-1199.62"/>
</g>
<!-- 44&#45;&gt;22 -->
<g id="edge37" class="edge">
<title>44&#45;&gt;22</title>
<path fill="none" stroke="black" d="M99,-1151.7C99,-1144.41 99,-1135.73 99,-1127.54"/>
<polygon fill="black" stroke="black" points="102.5,-1127.62 99,-1117.62 95.5,-1127.62 102.5,-1127.62"/>
</g>
</g>
</svg>
